<svg width="24" height="24" viewBox="0 0 24 24" fill="none" xmlns="http://www.w3.org/2000/svg">
<path d="M12 21C11.355 20.428 10.626 19.833 9.855 19.2H9.845C7.13 16.98 4.053 14.468 2.694 11.458C2.248 10.5 2.011 9.45799 2 8.39999C1.99851 7.68198 2.14051 6.9709 2.41764 6.30852C2.69477 5.64613 3.10145 5.0458 3.6138 4.54276C4.12616 4.03972 4.73385 3.64412 5.40121 3.37919C6.06856 3.11426 6.78213 2.98534 7.5 2.99999C8.68062 3.00186 9.83583 3.34308 10.828 3.98299C11.264 4.26596 11.6584 4.60825 12 4.99999C12.344 4.60999 12.738 4.26799 13.173 3.98299C14.1647 3.34295 15.3197 3.00171 16.5 2.99999C17.2179 2.98534 17.9314 3.11426 18.5988 3.37919C19.2661 3.64412 19.8738 4.03972 20.3862 4.54276C20.8985 5.0458 21.3052 5.64613 21.5824 6.30852C21.8595 6.9709 22.0015 7.68198 22 8.39999C21.9898 9.45881 21.7532 10.5032 21.306 11.463C19.947 14.473 16.871 16.984 14.156 19.2L14.146 19.208C13.374 19.837 12.646 20.432 12.001 21.008L12 21ZM7.5 4.99999C6.56851 4.98834 5.67007 5.34484 5 5.99199C4.68045 6.30587 4.42726 6.68078 4.25547 7.09445C4.08369 7.50811 3.99681 7.95209 4 8.39999C4.011 9.16999 4.186 9.92999 4.512 10.628C5.15352 11.9267 6.01912 13.102 7.069 14.1C8.06 15.1 9.2 16.068 10.186 16.882C10.459 17.107 10.737 17.334 11.015 17.561L11.19 17.704C11.457 17.922 11.733 18.148 12 18.37L12.013 18.358L12.019 18.353H12.025L12.034 18.346H12.044L12.062 18.331L12.103 18.298L12.11 18.292L12.121 18.284H12.127L12.136 18.276L12.8 17.731L12.974 17.588C13.255 17.359 13.533 17.132 13.806 16.907C14.792 16.093 15.933 15.126 16.924 14.121C17.9741 13.1236 18.8397 11.9485 19.481 10.65C19.813 9.94599 19.991 9.17799 20.001 8.39999C20.0029 7.95337 19.9153 7.51089 19.7434 7.09868C19.5715 6.68646 19.3187 6.31288 19 5.99999C18.3312 5.34991 17.4326 4.99048 16.5 4.99999C15.9373 4.99521 15.38 5.10955 14.8647 5.33551C14.3494 5.56146 13.8877 5.8939 13.51 6.31099L12 8.05099L10.49 6.31099C10.1123 5.8939 9.65063 5.56146 9.1353 5.33551C8.61997 5.10955 8.06266 4.99521 7.5 4.99999Z" fill="#FF6830"/>
</svg>
