<svg width="40" height="40" viewBox="0 0 40 40" fill="none" xmlns="http://www.w3.org/2000/svg">
<path d="M14.3667 35.5556H6.74444C6.13444 35.5556 5.54943 35.3132 5.1181 34.8819C4.68676 34.4506 4.44444 33.8656 4.44444 33.2556V6.74444C4.44444 6.13445 4.68676 5.54943 5.1181 5.1181C5.54943 4.68676 6.13444 4.44444 6.74444 4.44444H14.3778C14.9858 4.44738 15.568 4.691 15.9969 5.12201C16.4259 5.55303 16.6667 6.13637 16.6667 6.74444V33.2556C16.6667 33.8656 16.4243 34.4506 15.993 34.8819C15.5617 35.3132 14.9767 35.5556 14.3667 35.5556ZM14.4444 6.66667H6.66666V33.3333H14.4444V6.66667Z" fill="#FF6830"/>
<path d="M33.2556 35.5556H25.6333C25.0233 35.5556 24.4383 35.3132 24.007 34.8819C23.5756 34.4506 23.3333 33.8656 23.3333 33.2556V6.74444C23.3333 6.13445 23.5756 5.54943 24.007 5.1181C24.4383 4.68676 25.0233 4.44444 25.6333 4.44444H33.2667C33.8747 4.44738 34.4569 4.691 34.8858 5.12201C35.3148 5.55303 35.5556 6.13637 35.5556 6.74444V33.2556C35.5556 33.8656 35.3132 34.4506 34.8819 34.8819C34.4506 35.3132 33.8656 35.5556 33.2556 35.5556ZM33.3333 6.66667H25.5556V33.3333H33.3333V6.66667Z" fill="#FF6830"/>
</svg>
